<?xml version="1.0" encoding="UTF-8"?>
<svg id="svg1936" xmlns="http://www.w3.org/2000/svg" version="1.1" xmlns:svg="http://www.w3.org/2000/svg" viewBox="0 0 603 182">
  <!-- Generator: Adobe Illustrator 29.4.0, SVG Export Plug-In . SVG Version: 2.1.0 Build 152)  -->
  <defs>
    <style>
      .st0 {
        fill: #fff;
      }

      .st1 {
        fill: #f90;
      }
    </style>
  </defs>
  <path id="path8" class="st1" d="M374,142.2c-35,25.8-85.7,39.6-129.4,39.6s-116.4-22.7-158.1-60.3c-3.3-3-.3-7,3.6-4.7,45,26.2,100.7,41.9,158.2,41.9s81.4-8,120.6-24.7c5.9-2.5,10.9,3.9,5.1,8.2"/>
  <path id="path10" class="st1" d="M388.6,125.5c-4.5-5.7-29.6-2.7-40.8-1.4-3.4.4-4-2.6-.9-4.7,20-14.1,52.8-10,56.7-5.3,3.8,4.7-1,37.6-19.8,53.4-2.9,2.4-5.6,1.1-4.4-2.1,4.2-10.5,13.7-34.2,9.2-39.9"/>
  <path id="path12" class="st0" d="M348.5,20.1V6.4c0-2.1,1.6-3.5,3.5-3.5h61.3c2,0,3.5,1.4,3.5,3.5v11.7c0,2-1.7,4.5-4.6,8.6l-31.7,45.3c11.8-.3,24.3,1.5,34.9,7.5,2.4,1.4,3.1,3.4,3.3,5.3v14.6c0,2-2.2,4.3-4.5,3.1-18.8-9.9-43.9-11-64.7.1-2.1,1.2-4.4-1.2-4.4-3.1v-13.9c0-2.2,0-6,2.3-9.4l36.8-52.7h-32c-2,0-3.5-1.4-3.5-3.4"/>
  <path id="path14" class="st0" d="M125,105.5h-18.6c-1.8-.1-3.2-1.5-3.3-3.2V6.6c0-1.9,1.6-3.4,3.6-3.4h17.4c1.8,0,3.3,1.5,3.4,3.2v12.5h.3c4.5-12.1,13.1-17.7,24.5-17.7s19,5.6,24.2,17.7c4.5-12.1,14.8-17.7,25.7-17.7s16.4,3.2,21.6,10.5c5.9,8,4.7,19.7,4.7,30v60.4c0,1.9-1.6,3.5-3.6,3.5h-18.6c-1.9-.1-3.4-1.6-3.4-3.5v-50.7c0-4,.4-14.1-.5-17.9-1.4-6.4-5.6-8.2-11-8.2s-9.2,3-11.1,7.8c-1.9,4.8-1.7,12.9-1.7,18.3v50.7c0,1.9-1.6,3.5-3.6,3.5h-18.6c-1.9-.1-3.4-1.6-3.4-3.5v-50.7c0-10.7,1.7-26.4-11.5-26.4s-12.9,15.3-12.9,26.4v50.7c0,1.9-1.6,3.5-3.6,3.5"/>
  <path id="path16" class="st0" d="M469.5,1.2c27.7,0,42.6,23.8,42.6,54s-16.5,52.3-42.6,52.3-41.9-23.8-41.9-53.4S442.5,1.2,469.5,1.2M469.7,20.7c-13.7,0-14.6,18.7-14.6,30.4s-.2,36.7,14.4,36.7,15.1-20.1,15.1-32.4-.3-17.7-2.8-25.4c-2.1-6.7-6.3-9.3-12.2-9.3"/>
  <path id="path18" class="st0" d="M548,105.5h-18.6c-1.9-.1-3.4-1.6-3.4-3.5V6.3c.1-1.8,1.7-3.1,3.6-3.1h17.3c1.6,0,3,1.2,3.3,2.7v14.6h.3c5.2-13.1,12.5-19.3,25.4-19.3s16.5,3,21.8,11.3c4.9,7.7,4.9,20.5,4.9,29.8v60.2c-.2,1.7-1.8,3-3.6,3h-18.7c-1.7-.1-3.1-1.4-3.3-3v-52c0-10.5,1.2-25.8-11.7-25.8s-8.7,3-10.8,7.7c-2.6,5.8-3,11.7-3,18.1v51.5c0,1.9-1.7,3.5-3.6,3.5"/>
  <g id="use28">
    <path id="path30" class="st0" d="M299.7,59.8v-4c-13.5,0-27.7,2.9-27.7,18.8s4.2,13.5,11.3,13.5,9.9-3.2,12.9-8.5c3.7-6.4,3.5-12.5,3.5-19.8M318.5,105.2c-1.2,1.1-3,1.2-4.4.4-6.2-5.1-7.3-7.5-10.7-12.4-10.2,10.4-17.5,13.6-30.7,13.6s-27.9-9.7-27.9-29,8.2-25.4,19.9-30.5c10.1-4.5,24.3-5.2,35.1-6.5v-2.4c0-4.4.3-9.7-2.3-13.5-2.3-3.4-6.6-4.9-10.5-4.9-7.1,0-13.4,3.6-15,11.2-.3,1.7-1.5,3.3-3.2,3.4l-18.1-1.9c-1.5-.3-3.2-1.6-2.8-3.9C252,6.9,271.8.2,289.5.2s20.9,2.4,28.1,9.3c9.1,8.5,8.2,19.8,8.2,32.1v29c0,8.7,3.6,12.6,7,17.3,1.2,1.7,1.5,3.7,0,5-3.8,3.2-10.6,9.1-14.3,12.4h0"/>
  </g>
  <path id="path301" data-name="path30" class="st0" d="M55.3,59.8v-4c-13.5,0-27.7,2.9-27.7,18.8s4.2,13.5,11.3,13.5,9.9-3.2,12.9-8.5c3.7-6.4,3.5-12.5,3.5-19.8M74.1,105.2c-1.2,1.1-3,1.2-4.4.4-6.2-5.1-7.3-7.5-10.7-12.4-10.2,10.4-17.5,13.6-30.7,13.6S.4,97.1.4,77.7s8.2-25.4,19.9-30.5c10.1-4.5,24.3-5.2,35.1-6.5v-2.4c0-4.4.3-9.7-2.3-13.5-2.3-3.4-6.6-4.9-10.5-4.9-7.1,0-13.4,3.6-15,11.2-.3,1.7-1.5,3.3-3.2,3.4l-18.1-1.9c-1.5-.3-3.2-1.6-2.8-3.9C7.7,6.9,27.4.2,45.2.2s20.9,2.4,28.1,9.3c9.1,8.5,8.2,19.8,8.2,32.1v29c0,8.7,3.6,12.6,7,17.3,1.2,1.7,1.5,3.7,0,5-3.8,3.2-10.6,9.1-14.3,12.4h0"/>
</svg>